<svg version="1.2" xmlns="http://www.w3.org/2000/svg" viewBox="0 0 1000 755" width="1000" height="755">
	<title>Little prince 3-ai</title>
	<style>
		.s0 { 
            stroke: #fff;
            stroke-width: 2;
            fill: transparent;
            stroke-dasharray: 12173.536769866943 12173.536769866943;
            stroke-dashoffset: 12173.536769866943;
            animation: draw 15s forwards;
        } 

        @keyframes draw {
            to {
                stroke-dashoffset: 0;
				fill: #fff;
            }
        }
	</style>
	<g id="logo-layer">
		<path id="&lt;Path&gt;" class="s0" d="m299.6 537.3c-4.3-15 6.1-25.5 14-33.2 17.1-16.7 60-21.2 85.5-18.8-21.9 3.8-63 6.9-80.5 23 14.1 7.3 27.7 5.6 41 3.3 13-2.3 33.4-13.8 47.1-15.7-9.4 3.4-26.2 16.2-36.1 18.3-17.6 3.8-35.5 7.1-53.7 1.2-2-0.7-6.7 0.9-7.8 2.6-3.4 5.4-5.7 11.3-9.5 19.3z"/>
		<path id="&lt;Compound Path&gt;" fill-rule="evenodd" class="s0" d="m224.7 544.9c-3.3 2-4.4 3.1-4.9 2.9-12.7-5.3-14.9 2.6-19.8 9.8-4.3 6.5-11.2 12.3-18.6 16.4-12.6 7.1-13.5 9.2-1.4 17.3-6.5 1.7-12.1 3.4-14.5-4-7.9-24.6 13.7-48 43.5-46.6 4.7 0.2 9.2 2.4 15.7 4.2zm-51 23.8c11.7-0.9 25.5-14 24.9-23-11.9 1.3-23 11.2-24.9 23z"/>
		<path id="&lt;Compound Path&gt;" fill-rule="evenodd" class="s0" d="m743.3 624.4c-10.8 2.7-32.4-25.6-40.7-42.4-1.8-3.7-3.5-7.6-4.2-11.5-2-11.9-9.7-10.1-23-8.1 8.4-6.7 33.7-9.5 42.2-2.9 17 13.2 27.5 29.8 30.1 49.3 0.6 5 1.6 14.1-4.4 15.6zm-1.2-24.2c-3.8-14.6-11.9-26-24-35.5-3-2.3-8.1-5.7-11.9-4.1-4 1.7-3.7 7.4-3.3 10.9 1.9 14.2 11 25.7 21.6 36.1 3.9 3.8 10.5 10.4 16.2 8.2 5.8-2.2 3-9.6 1.4-15.6z"/>
		<path id="&lt;Path&gt;" class="s0" d="m331.8 545.7c20.6-3.1 41.9-6.2 61.1-9.1-8.8 8-46 14.1-61.1 9.1z"/>
		<path id="&lt;Path&gt;" class="s0" d="m191 590.7c12-14.2 22.2-26.3 32.3-38.3-4.8 15.6-15 27.8-32.3 38.3z"/>
		<path id="&lt;Path&gt;" class="s0" d="m758.1 554.6q-14.4-17.4-28.8-34.8c-0.6-0.9 0.1-2.8 1.9-1.2 11 9.8 19.7 23 29.5 34.5 0.6 2.2-0.6 3-2.6 1.5z"/>
		<path id="&lt;Path&gt;" class="s0" d="m597.1 172.3q-4.4-8.3-8.8-16.6c-0.5-1.1 0.7-1.8 1.9-0.9 2.1 2.8 2.2 5.4 6.9 9.3 2.1 1.7 2.4-4 3.4-5.7 0.8-1.2 1.6-0.7 1.6 0q-0.5 6.5-1 13c0.1 3.7-1.1 4.3-4 0.9z"/>
		<path id="&lt;Path&gt;" class="s0" d="m497.7 182.6c-1.7 3.6-1.2 7.7-2.5 11.4-0.5 1.7-1.7 2.1-2.8 0.6-2.9-3.7-4.3-8.1-6.4-12.2-0.2-1.5 0.7-2.1 2.3-1.2 1.4 1.3 2.2 4 4.5 3.9 1.8-0.1 2.4-2.4 3.6-3.5 2.5-1.5 2-0.3 1.3 1z"/>
		<path id="&lt;Compound Path&gt;" fill-rule="evenodd" class="s0" d="m853.1 338.9c-67.5 39.5-129.5 24-190.5-16.9-0.9 7.2-3.2 14.6-2.4 21.8 3.9 33.8 8.6 67.5 13 101.3 0.4 3.2 2.3 6.5 1.6 9.3-2.2 8.8 3.4 14.2 8.8 19.8 7.9 8.2 15.3 17 24.2 24.2 5.2 4.2 12.9 5.7 19.5 8.3 7.1 2.9 16.5 4 21.1 8.9 10.5 11.4 19.2 24.4 27.7 37.3 5.9 8.7 6.4 18.1 1.5 28.1-2.1 4.1-2 10.5-0.1 14.9 13.7 31.5 23.5 64 28.6 97.8 0.8 5.5 2.8 8.7-1 16.9-1 2-1.3-4.4-1.5-6.6-3.2-35-14.4-68.3-27.4-100.9-4.2-10.5-3.2-20-1.8-30.4 0.8-6.1 0.3-13.6-2.8-18.7-7.2-12.1-15.2-24.2-25.3-34.1-5.6-5.4-15.9-8-24.4-9-8.9-1.2-14.7-4.5-20.4-10.6-13.6-14.6-26.1-30.6-45.3-39.7-2-1-4.2-1.6-7.2-2.8-1.1 11.6-5.8 25.3-13.2 30.7-3.7 2.7-12.9 5.2-14 5.4-6.6 1.3-17.8 3.5-24.3 3.6-39.9 0.2-79.7-0.7-118.8-8.9-3.3-0.7-6.6-1.6-9.8-2.6-19-6.4-22.6-11.9-19.2-30.3 1.2-6.8 4.7-13.5 4.9-20.3 0.1-5.9-2.8-12-4.9-17.8-0.2-0.7-6.1-0.6-6.1-0.3-1 5.1-3 10.6-1.7 15.4 5.3 19.9-5 30.7-22.8 38.8-9.7 4.4-18.9 7.8-29.8 7.2-24.2-1.2-48.4-2.2-72.6-2.6-6.6-0.1-13.3 2-19.8 3.6-21.5 5.3-42.6 4-64-1.3-4.6-1.1-12 0.3-15.3 3.3-16.4 14.6-32.7 29.5-47.3 45.6-8.8 9.7-19.2 15.9-31.2 20-6.7 2.3-11.9 4.4-15.1 11.1-2.4 5.2-7.4 9.4-11.5 13.7-10.1 10.6-13.1 24.1-17.5 37-1 3.1-3.9 14.8 1 12.1 3.8-2 7.8-1.1 11.9-5.6-12.6 16.9-13.8 37.9-24.8 55.1-0.9 1.9-3.1 6.1-3.1-0.5 0.2-6.3 0.5-12.6 0.8-18.9 0.7-16.6 2.3-33.2 2-49.8-0.2-12.1 8.7-19.5 14-28.7 3.1-5.4 9.3-9.1 12.7-14.4 7.1-11.2 18.3-16 30.4-20.7 8.8-3.4 17.5-8.4 24.4-14.5 15.8-13.8 30.2-28.9 45.6-43 5.9-5.4 7.1-8.5 0.5-15.1-21.4-21.4-35.8-46.1-38.5-76.4-2.1-24.9-7.8-49.3-27.7-68.1-5.7-5.4-12.7-9.7-19.2-14.6 8.9-9.1 22.8-9.2 34.9-1.5 2.5 1.6 6.8 3.8 9.4 2 2.9-1.8 2.4-6.8 1.3-9.4-3-7.6-5.5-16.5-11.3-21.7-10.1-9-22.6-15.4-34-23.1-2.1-1.5-3.6-3.9-5.4-5.8 2.5-1 4.9-2.5 7.5-2.9 52.5-7.1 92.1 18.5 128.8 47.6 19.4 15.4 26.6 39.1 32.4 62.2 1.9 7.6 2.7 15.5 4.4 23.3 0.7 2.9 2.4 5.6 3.7 8.7 1.3-0.9 2.3-1.3 2.3-1.6 0-17.5 11.2-26.5 27.1-32.6 3.1-1.2 5.2-4.7 7.5-7.4 5.8-6.6 11-13.7 17.2-19.8 5.9-5.7 6.3-10.9 3.1-17.9-6.1-13-12.6-26-16.6-39.6-4.8-16.4-2.5-20.4 14.9-23.5 20.3-3.5 28.6-18.9 40.3-31 6.1-6.3 11.3-13.4 17.2-19.9 2.2-2.5 5.5-4.1 8.3-6.1 2.8-1.7 3.4-0.9 3.1 0.7 0.1 7.3 1 14.7 0 21.8-0.9 6.8 2.1 9.2 8.1 11.9 10 4.4 20 9.4 28.7 15.7 5.3 3.7 9.2 4.7 15.5 3 6.2-1.7 12.6-0.5 19.4-2.4 6.9-1.9-0.4 13.6-1.8 20.1-0.9 4.5-4.2 8.6-6 13-1.1 2.8-1.3 5.9-2.2 10.4 8.5-2.4 11.9-4.4 12.1-12.1 0.2-11.4 3.1-22.8 6.1-33.9 1.6-6 1.5-9.9-3.9-14.1-4.4-3.5-7.5-8.6-11.7-13.5-3.2 3-6.1 5.8-9.6 9.1-9.2-12.3-2.8-25.1-3.5-38-10.5 1.5-11-4.6-10.9-11.9 0-17.7 5.8-33.5 16.4-48 2-2.8 3.9-5.7 6.9-10.2-6.1 1.5-10.3 2.5-16.5 4 3.7-12.7 12.3-20.4 19.9-28.3 6.3-6.5 13.7-12.2 21.2-17.5 9.2-6.5 18.6-15.4 31 1.6 1-7.5 1.8-10.4 3.2-13.9 1.4-3.6 2.3-5.6 4.5-8.7 1.2-1.7 2.7 0 2.9 0.8 2.2 6.4 0.1 5.4 3.5 10.3 4.8 7.1 7.4 10.3 16.7 7.9 20.7-5.3 40.5-2.2 59.6 9.3-3 2.9-5.2 5-9 8.4 9.6 4.2 20.2 6.1 26.2 12.1 5.6 5.6 6.4 15.4 9.4 23.6-1.4 0.2-3.3 0.4-5.7 0.6 5.4 10.7 10.8 21 16.1 31.4 0.6 2.4 0 3.4-2.9 1.4q-2.9-2.8-5.7-5.6c-0.9-1-2.2-1.8-2.2 0.5 2.8 13.6 7.6 27 8.3 40.9 0.1 2.9-0.7 4.7-3.1 0.8-1.7-2.8-3.4-5.5-6-9.8 0.4 11.1 0.8 20.4 1.1 29.8-0.5 5-1.6 1.8-2.9 0.7-1.8-2.5-3.6-5-5.1-7.2-1.8 7.2-4 14.4-5.4 21.8-0.4 2.3 0.9 5.5 2.6 7.3 23.7 25.4 46.5 51.7 71.8 75.6 27.6 26.2 46 28.8 81.4 13.8 33.3-14.2 63.2-33.7 85.7-61.6 3.8-4.6 7.2-9.6 13-13.5-7.2 15.6-14.4 31.2-21.9 47.5 19.5-7 29.7-23.2 43.5-36.1 2.4 21.3-30.6 62.2-66.8 83.4zm-745.2 276.7q0.5-0.6 0.9-1.2 0.4-0.5 0.8-1-0.8 1.2-1.7 2.2zm30.2-57.2c6.8-8.1 8.6-7 4.2 2.4-10.8 17.6-20.1 29.3-32.7 45.6 9.5-14.1 19.4-34.5 28.5-48zm369.3-339.6c14.1 7.4 30.5 10 47 7.7 12.2-1.8 24.3-4.3 36.5-5.7 7.9-0.8 16-0.2 24 0 5 0.1 10.4-0.5 15 1 7.2 2.3 10.6-0.9 12.1-6.2 1.3-4.4 1.5-9.4 1.1-14-0.5-7.3-1.9-14.6-3.4-24.2 4.9 4.6 7.8 7.4 13.1 12.5-1.1-10.1-1.9-17.5-2.8-25.6 2.8 1.9 4.9 3.3 6.9 4.7-2-7.3-3.3-14.1-5.8-20.6-2.5-6.5-6.2-12.7-10.4-21.1 5.3 1.9 7.6 2.7 11.8 4.1-2.1-4.3-3.3-7.1-4.8-9.8-3.2-5.6-9.4-11.2-9-16.5 0.8-11.8-7.5-13.2-15.6-16.2-10.9-4-23.8-4.8-31-16.5 4.3-0.7 8.4-1.3 12.5-2-14-4.2-28-4.4-41.5 0.4-6.4 2.3-9.4 1-11.1-4.9-0.4-1.6-1.7-2.9-2.4-4.2-1.9 6.5-3.7 12.6-5.4 18.7-0.4 1.9-1.1 3.4-2.9 0-2.2-3.4-4.3-6.8-6.6-10.1-6.2-8.7-8.9-9.3-17.8-2.9-8 5.8-15.6 12.1-23 18.6-2.6 2.3-3.9 5.9-6.8 10.5 7.2-0.6 12-1 18.5-1.5-16.3 20.7-39.8 36.5-35.4 65.4 3.5 0 6-0.1 9.7-0.2-1 13.4-1.8 26.1-2.7 39.6 4.8-1.6 8.2-2.7 9.1-3 7.6 8.2 12.8 17.7 21.1 22zm-5.7 46.9c15.3 16.6 57.5 28.4 77.9 26.5 4-0.3-5.1-3.7-4.4-5.2 2.4-5.1 12.7-2.9 17.1-0.8 11.4 5.4 19.6-1.3 29.7-3.1-1.9-3.5-3.1-6.1-4.6-8.3-10-14.5-10-14.3-29.3-10.8-6 1.1-12.1 2.4-18.2 1.8-1.3-0.1-1.2-1.1-0.2-1.8q13.2-3.9 26.5-7.8c1.6-0.6 4 0.5 0.5-3.4-10.5-6.6-20.1-16.1-31.7-19.1-14.6-3.7-30.8-2.5-46.2-2.3-3.2 0-9.4 3.2-9.5 7.1 0 2.9 4.5 4.1 7 5.8 2 1.4 6.7 3.4 9.3 4.8 6.4 3.5-12 0.4-16.5 0.6-2.2 1.3-1.5 3-0.7 3.6q14.1 5 28.2 10c0.4 0.5 1.2 0.7-0.3 0.9-9.6-1.5-22-3.1-30.3-4.8-5.3-1-0.2 1.4 10.4 9.4 4.6 3.4-18.5-7.2-14.7-3.1zm-161.8 85.5c19.5 4.8 24.1-0.2 34.4-1 22.3-1.8 39.3-14.6 56.5-25.8 15.3-9.9 28.6-22.7 42.2-34.7 2.4-2 2.2-6.6 3.1-10.1 0.9-3.8 1.2-7.7 2.6-11.3 1.7-4.5 4.7-8.5 6.1-13 1.1-3.6 4.9-12.8 0.9-11.7-3.1 0.9-8.7-0.2-12.5 1.2-8 3-13.7 1.8-20.8-3.5-9.6-7.1-21-12.2-32.2-17.2-5.2-2.4-7.2-4.5-6.2-9.9 0.9-4.7-0.1-9.6 0.6-14.4 0.2-1.6 0.6-3.9-2.8-0.8-6.4 5.7-11.5 12.7-17.1 19.1-12.3 14-22.2 30.5-45.1 31.6-5.9 0.3-9.3 5.4-7 11.4 5.7 14.4 11.1 29 18 43 3.9 7.9 4.8 14.1-2.5 20.3-2.7 2.3-5.3 5-7.2 7.9-3.7 5.7-19.3 16.8-11 18.9zm89.8 48.2c-0.5-1.4-3.6-2.8-5.4-2.8-14.8 0.4-29.6 0.3-44.2 1.9-16.4 1.8-32 1.8-47.1-6.1-7.7-4-16.6-2.1-22.2 4.3-6.7 7.6-6.4 21 1.2 26.2 10.4 7 22.7 8.4 32.8 17.8 19.4 18-53.2-10.1-54.4-35.1-0.3-7.2-3.2-16.8-8.3-19.6-7.2-4-9.6-9.9-14-15.1-5.8-7-11.6-12.4-17.8-19.1-2.3-2.5-6-5.4-9.3-7.1-1.2 2.8-2.4 5.6-3.5 8.3-0.7 1.7-1.2 3.4-2.2 6.2-3.8-1.9-6.9-3.5-11.4-5.8 0.2 11.4 0.4 22.1 0.7 35.2-7.4-5-12.6-8.5-20.2-13.6 1.7 10.9 3.1 19.3 4.9 30.6-8.9-4.3-15.3-7.5-22-10.8-4.3 31.6 26.2 70.4 59.3 77.9 22.3 5.2 43.4 1.5 64.6-4.1 14.5-3.7 37.6-12.8 43.4-10.5 4.8 1.9-20.4 7.4-13.9 11.9 5.6 3.9 10.2 3.3 14 3.4 14.2 0.4 28.8 2.5 42.4-0.1 11.6-2.2 22.6-9.1 32.8-15.4 3.2-2 3.5-8.5 4.7-13.1 3.8-15.6 0.2-30.6-4.9-45.4zm-229.6-10c-1.9-11.9-4.5-28-6.2-39.1 1.7 0.9 2.2 2.5 3.8 3.9 5.8 5.5 11.5 11.1 19.4 18.9-0.8-12.6-1.5-22.3-2.2-33.1 6.3 2.2 10.8 3.9 16.3 5.9-0.5-6.6-0.9-18.5-1.3-24.1 1.3-0.6 2.6 2.4 4.1 4.6 7.1 10.5 18.8 17.7 28.5 26.2 2.1 1.8 6.5 3.5 8.6 2.6 2-0.9 4.2-5.5 3.5-7.6-4.1-12.9-6.3-27.2-14-38-22-31.2-56.8-44.8-96.6-55.4 6.1 14.9 12.1 27.5 16.5 40.4 4.6 13.5 7.7 27.4 11.4 41-6.7-2.1-13.5-4.2-20.8-6.5-2.3 18.8 15.1 55.1 29 60.3zm111.2-9.9c0 2.6 1.4 7.4 4.6 7.7 3.6 0.5 6.7-4.4 7.4-7.2 1.1-4.7 4.3-11.6 0-15.6-8.6-7.8-12.1 8-12 15.1zm346-14.3c-1.4-14 0.4-28.3 0.1-42.5-0.1-4.1-2.4-8.2-4.3-12.1-1.1-2.3-3.1-4.1-4.9-6.1-10.1-11.2-18.2-19.7-38.8-13.5-33.8 10.2-68.1 1.9-100.2-11.9-5-2.1-8.3-2.5-12.5 1-15.6 12.7-31.2 25.4-47.2 37.7-10.4 7.9-21.5 15-32.3 22.3-3 2.1-7.2 3.3-9 6-4.5 6.7-8.1 13.1-18.9 11.3-24.7-4.2-52.2-0.9-56.6 10.5-1.3 3.4-0.1 7.8 0.3 11.8 0.6 6.3 5 5.2 9.6 4.5 1.6-0.3 4.6 1.2 5 2.4 2.7 8.6 10.6 7.3 16.7 7 11.9-0.7 23.6-3 35.5-4.1 3.5-0.4 7.2 0.2 10.7 1.1 13.4 3.3 37.1-3.5 39.9-14.4 2.5-9.6 7.7-8.8 14.8-9.7 8.5-1.1 16.7-16.7 14.1-25.5-0.8-2.7-2.3-6-3.3-10.2-0.9-3.9 5 3.2 7.9 5 2.3-8.5 4.7-18.2 6.7-24.5 0.2-0.6 2.3-4.2 2.1 0 0 2.8 0.6 5.7 0 8.4-3.6 14.7-7.7 29.4-11.2 44.1-0.9 3.6-0.4 7.4-0.5 11.2-0.1 3-0.9 7.2 2.2 11.6 4.6 6.5 17.4 5.3 24.1 10.1 0.7 0.4 3.5 2.7-0.5 2.2-2.4-0.4-4.9-0.5-7.3-1.2-5.8-1.6-11.5-4.1-17.4-5-2.9-0.4-7.5 0.4-9.4 3-0.8 1.1-0.8 2.9 0 4 3.2 4.7 12.6 4.3 16.4 6.7 0.8 0.5 4.2 3.9-1.1 2.4-5.5-1.7-12-3.5-16.6-5.2-0.8-0.3-1.9 0.8-1.4 1.9 4.6 3.1 9.6 7.1 13.7 9.4 0.3 0.1 2.6 2-0.4 1-4.5-1.6-8.9-2.7-13.8-4-0.9-0.3-3.6 1-1.9 2.1 4.1 3.7 19.1 12.6 12.9 11.4-7.1-1.3-13.3-6.9-19.8-7.1-1.1 0-1.6 2-1.2 3 6.9 17.4 42.2 14.5 56.7 20.3 10 4 2.7 3.3-0.4 3-12.6-1.8-25.5-2.5-37.6-5.7-8.6-2.2-13.4-1.4-15.9 0.9-20 18.6-4.1 39.9 19.4 43.8 29.4 4.8 59.4 6.8 89.3 9.6 2.6 0.2 5.8-4.1 8.5-3.9 10.7 0.7 23.5 1.7 35.3 2.7q0 0 0 0c3.4 0 14.3-2.5 15-3 26.6-20 10-67.3-7.8-55.6-16.9 11.1-18.6 4.2-34.3 5.7-15.4 1.4-25.9 2.2-47.1-1.9-0.9-0.2-4-2.6 0.1-2.6 8.1 0.3 16.1 0.9 24.1 0.6 14.8-0.4 29.6-1 44.4-2.2 12.3-1 21.7-6 23.2-19.8-2.3-0.3-13.6 1.5-9.7-1.5 7.4-5.9 11.4-9.9 8.9-17.4-3.4-10.2-7.6-20.5-8.8-31-2-17-1.9-34.2-2.7-51.3 0.5-1.8 1.9-1.6 2.3-0.1 1.6 12.3 3 24.7 5.1 37 0.5 3.3 3.2 6.2 4.7 9.4 0.6 1.4 1.2 2.9 1.3 4.4 0.3 5.8-1.5 12.4 1 17.1 7.6 14.6 7.7 29.8 7.2 45.3 0 0.7 0.1 1.3 0.1 1.9-0.6 21.7 1.7 21.7 26.8 31.9 4.9 2 0-9-0.6-13.1-3.6-26.8-8-53.6-10.7-80.6zm-200.2 43c4.5-7.9 8.8-15.9 12.1-24.2 0.8-2.1-1.4-6.9-3.6-7.9-1.9-1-6.2 1-8.7 2.7-4.8 3.3-11 6.4-13.4 11.1-2.7 5.3-2.4 12.3-2.2 18.5 0 1.2 5.7 3 7.9 3 4.1 0 7.1-1.7 7.9-3.2zm453.2-130.5c2.3-3.8 2.9-8.1-2.6-2.5-11.2 11.4-20.3 28-37.2 23.7-1.4-0.4 0.6-6.9 1.7-8.7 5.2-9.1 4.8-9.5 10.3-18.2 2.9-4.7 4.6-10.6-3-2.3-1 1.1-1.9 2.6-3 3.6-29.2 27.8-63.1 48.2-103.8 57.7-5.6 1.3-12 1.1-17.8 0.1-23.6-4-38.6-20.1-53.5-35.5-16.1-16.5-30.3-34.7-46.6-51-10.7-10.7-22.5-21.7-40.7-19.2-2.5 0.3-6 2.1-10 1.9-10.9-0.6-17.7-5.2-28.7-0.4 19 18 37.6 35.2 55.8 52.8 11.2 10.8 22 22.2 32.7 33.5 26.2 27.9 60.5 39.7 98.5 42.4 17.5 1.2 36.3 1.1 52.8-3.7 29.2-8.5 54.2-25.3 74.5-47.2 7.7-8.3 14.7-17.4 20.6-27z"/>
		<path id="&lt;Path&gt;" class="s0" d="m551.5 226q-4.4-8.3-8.8-16.6c-0.5-1.2 0.6-1.8 1.8-1 2.2 2.8 2.3 5.5 7 9.3 2.1 1.7 2.3-4 3.4-5.7 0.8-1.2 1.6-0.7 1.6 0.1q-0.6 6.5-1.1 13c0.2 3.7-1.1 4.2-3.9 0.9z"/>
	</g>
</svg>