<?xml version="1.0" encoding="utf-8"?>
<!-- Generator: Adobe Illustrator 17.0.0, SVG Export Plug-In . SVG Version: 6.00 Build 0)  -->
<!DOCTYPE svg PUBLIC "-//W3C//DTD SVG 1.1//EN" "http://www.w3.org/Graphics/SVG/1.1/DTD/svg11.dtd">
<svg version="1.1" id="Layer_1" xmlns="http://www.w3.org/2000/svg" xmlns:xlink="http://www.w3.org/1999/xlink" x="0px" y="0px"
	 width="1000px" height="755px" viewBox="0 0 1000 755" enable-background="new 0 0 1000 755" xml:space="preserve">
<rect fill="#FFFFFF" width="1000" height="755"/>
<path d="M338.592,544.298c-4.275-14.977,6.074-25.449,14.018-33.225c17.046-16.686,59.966-21.196,85.493-18.812
	c-21.891,3.882-63.015,6.937-80.458,23.023c14.019,7.349,27.634,5.58,40.943,3.295c13.014-2.234,33.403-13.801,47.138-15.705
	c-9.475,3.431-26.255,16.227-36.119,18.341c-17.595,3.769-35.529,7.048-53.701,1.166c-2.009-0.65-6.703,0.967-7.76,2.635
	C344.72,530.418,342.409,536.334,338.592,544.298z"/>
<path d="M263.687,551.873c-3.33,2.045-4.437,3.091-4.843,2.921c-12.7-5.321-14.969,2.611-19.823,9.844
	c-4.307,6.418-11.26,12.237-18.573,16.344c-12.665,7.112-13.551,9.228-1.494,17.353c-6.472,1.694-12.02,3.332-14.412-4.074
	c-7.94-24.589,13.653-47.965,43.425-46.564C252.669,547.92,257.244,550.101,263.687,551.873z M212.715,575.674
	c11.661-0.873,25.448-13.99,24.885-22.966C225.683,553.981,214.612,563.938,212.715,575.674z"/>
<path d="M782.348,631.401c-10.84,2.709-32.404-25.553-40.756-42.392c-1.825-3.679-3.477-7.562-4.158-11.484
	c-2.07-11.925-9.73-10.084-23.07-8.131c8.388-6.731,33.759-9.465,42.19-2.91c17.032,13.242,27.514,29.782,30.109,49.311
	C787.332,620.823,788.33,629.906,782.348,631.401z M781.144,607.157c-3.863-14.552-11.903-25.973-24.072-35.454
	c-2.954-2.301-8.044-5.745-11.877-4.089c-3.946,1.704-3.707,7.408-3.25,10.891c1.863,14.196,10.927,25.74,21.568,36.109
	c3.93,3.829,10.439,10.407,16.198,8.198C785.48,620.599,782.749,613.202,781.144,607.157z"/>
<path d="M370.755,552.687c20.6-3.054,41.973-6.223,61.172-9.069C423.072,551.592,385.931,557.699,370.755,552.687z"/>
<path d="M229.991,597.679c12.003-14.215,22.16-26.243,32.317-38.272C257.469,574.981,247.321,587.161,229.991,597.679z"/>
<path d="M797.132,561.601c-9.621-11.6-19.242-23.2-28.863-34.801c-0.607-0.901,0.164-2.764,1.917-1.2
	c11.043,9.849,19.675,22.972,29.512,34.458C800.291,562.258,799.065,563.051,797.132,561.601z"/>
<path d="M636.147,179.333c-2.95-5.529-5.9-11.058-8.85-16.587c-0.474-1.156,0.698-1.798,1.884-0.97
	c2.125,2.844,2.254,5.459,6.949,9.301c2.07,1.693,2.342-3.949,3.39-5.716c0.806-1.142,1.59-0.71,1.59,0.088
	c-0.35,4.329-0.7,8.659-1.05,12.988C640.231,182.136,638.963,182.677,636.147,179.333z"/>
<path d="M536.723,189.591c-1.745,3.587-1.27,7.712-2.479,11.457c-0.528,1.637-1.716,2.022-2.831,0.588
	c-2.902-3.732-4.269-8.183-6.404-12.275c-0.205-1.427,0.725-2.108,2.252-1.133c1.457,1.239,2.245,3.931,4.54,3.86
	c1.834-0.057,2.387-2.35,3.572-3.518C537.907,187.109,537.351,188.302,536.723,189.591z"/>
<path d="M958.884,262.525c-13.757,12.857-24.018,29.125-43.475,36.043c7.514-16.267,14.711-31.847,21.907-47.428
	c-5.788,3.885-9.195,8.829-12.982,13.504c-22.565,27.857-52.447,47.371-85.775,61.531c-35.337,15.014-53.807,12.4-81.382-13.739
	c-25.289-23.972-48.079-50.264-71.79-75.682c-1.678-1.798-2.955-4.988-2.549-7.235c1.338-7.395,3.536-14.654,5.358-21.787
	c1.546,2.156,3.346,4.666,5.145,7.176c1.284,1.109,2.342,4.308,2.86-0.702c-0.333-9.374-0.665-18.747-1.057-29.777
	c2.584,4.252,4.247,6.988,5.91,9.724c2.405,3.919,3.262,2.107,3.122-0.771c-0.676-13.864-5.51-27.274-8.265-40.91
	c0.025-2.232,1.293-1.44,2.184-0.467c1.901,1.874,3.802,3.747,5.703,5.621c2.873,1.958,3.549,0.929,2.883-1.406
	c-5.328-10.376-10.656-20.753-16.125-31.404c2.477-0.25,4.308-0.434,5.727-0.577c-3.005-8.257-3.761-18.084-9.356-23.612
	c-6.055-5.983-16.626-7.955-26.19-12.093c3.717-3.466,5.915-5.514,8.995-8.386c-19.168-11.584-38.9-14.632-59.606-9.349
	c-9.313,2.376-11.969-0.827-16.763-7.874c-3.367-4.951-1.314-3.915-3.43-10.308c-0.27-0.814-1.75-2.566-2.938-0.824
	c-2.15,3.152-3.125,5.151-4.5,8.722c-1.347,3.499-2.207,6.36-3.186,13.922c-12.388-16.998-21.851-8.134-31.002-1.617
	c-7.476,5.325-14.915,10.95-21.179,17.45c-7.645,7.932-16.24,15.636-19.883,28.334c6.105-1.47,10.391-2.502,16.489-3.971
	c-3.03,4.435-4.906,7.357-6.963,10.162c-10.603,14.461-16.35,30.285-16.412,47.986c-0.026,7.325,0.417,13.379,10.951,11.943
	c0.701,12.919-5.746,25.718,3.466,37.934c3.496-3.279,6.439-6.04,9.664-9.066c4.131,4.891,7.22,9.967,11.7,13.487
	c5.389,4.235,5.43,8.138,3.828,14.105c-2.984,11.11-5.844,22.55-6.081,33.901c-0.162,7.76-3.578,9.703-12.042,12.077
	c0.876-4.424,1.045-7.552,2.153-10.354c1.752-4.429,5.069-8.466,6.026-12.985c1.388-6.553,8.685-21.984,1.786-20.101
	c-6.831,1.864-13.246,0.722-19.461,2.405c-6.208,1.681-10.145,0.686-15.426-3.066c-8.765-6.227-18.687-11.243-28.683-15.653
	c-6.033-2.662-9.007-5.088-8.107-11.885c0.946-7.149,0.053-14.512-0.037-21.781c0.336-1.69-0.256-2.482-3.107-0.785
	c-2.803,2.026-6.064,3.683-8.319,6.148c-5.917,6.468-11.024,13.603-17.127,19.9c-11.756,12.13-20.083,27.52-40.304,31.041
	c-17.423,3.033-19.75,7.008-14.936,23.454c3.982,13.602,10.452,26.622,16.546,39.601c3.292,7.012,2.818,12.241-3.004,17.911
	c-6.278,6.113-11.442,13.223-17.215,19.803c-2.327,2.653-4.483,6.189-7.57,7.378c-15.824,6.098-27.024,15.153-27.08,32.598
	c-0.001,0.344-0.956,0.685-2.276,1.57c-1.325-3.044-3.036-5.766-3.682-8.694c-1.706-7.721-2.542-15.621-4.453-23.289
	c-5.747-23.053-12.978-46.78-32.413-62.198c-36.705-29.118-76.214-54.705-128.723-47.567c-2.599,0.353-5.018,1.874-7.52,2.851
	c1.785,1.977,3.238,4.386,5.412,5.859c11.34,7.685,23.888,14.12,33.933,23.047c5.883,5.229,8.332,14.139,11.371,21.729
	c1.052,2.627,1.532,7.61-1.285,9.442c-2.68,1.743-6.982-0.437-9.477-2.027c-12.112-7.721-25.992-7.66-34.915,1.503
	c6.499,4.857,13.526,9.141,19.293,14.595c19.85,18.772,25.533,43.172,27.697,68.076c2.634,30.309,17.08,54.971,38.47,76.425
	c6.545,6.564,5.426,9.672-0.499,15.102c-15.416,14.127-29.845,29.22-45.589,43.003c-6.949,6.083-15.619,11.08-24.424,14.506
	c-12.104,4.71-23.299,9.488-30.416,20.64c-3.381,5.298-9.607,9.06-12.703,14.447c-5.281,9.189-14.15,16.577-13.94,28.676
	c0.287,16.573-1.308,33.175-2.08,49.765c-0.294,6.31-0.541,12.621-0.81,18.932c0,6.58,2.237,2.423,3.115,0.502
	c11.299-17.554,12.318-39.164,25.766-56.288c13.017-16.576,22.476-35.604,33.497-53.555c4.335-9.402,2.559-10.59-4.277-2.392
	c-13.51,20.188-29.221,55.947-42.013,62.782c-4.949,2.644-2.016-9.07-1.004-12.091c4.323-12.913,7.351-26.432,17.441-37.027
	c4.145-4.353,9.124-8.528,11.538-13.682c3.154-6.734,8.41-8.863,15.051-11.133c12.074-4.127,22.451-10.333,31.249-20.017
	c14.626-16.102,30.897-30.954,47.271-45.549c3.351-2.987,10.761-4.46,15.356-3.313c21.356,5.331,42.499,6.583,64.003,1.283
	c6.499-1.602,13.201-3.711,19.774-3.605c24.201,0.391,48.4,1.396,72.573,2.621c10.933,0.554,20.127-2.809,29.788-7.214
	c17.855-8.142,28.097-18.855,22.793-38.807c-1.262-4.747,0.773-10.302,1.719-15.416c0.048-0.258,5.86-0.398,6.125,0.327
	c2.128,5.815,4.986,11.882,4.842,17.813c-0.164,6.784-3.617,13.438-4.879,20.272c-3.395,18.398,0.232,23.917,19.224,30.28
	c3.174,1.063,6.459,1.887,9.751,2.578c39.144,8.222,78.939,9.143,118.795,8.926c6.546-0.036,17.763-2.316,24.351-3.591
	c1.092-0.211,10.271-2.732,13.979-5.405c7.425-5.351,12.086-19.108,13.237-30.663c3.004,1.137,5.159,1.787,7.152,2.733
	c19.223,9.132,31.693,25.12,45.369,39.778c5.632,6.037,11.48,9.42,20.368,10.532c8.536,1.068,18.808,3.589,24.354,9.022
	c10.117,9.911,18.091,22.031,25.348,34.081c3.11,5.164,3.595,12.625,2.779,18.751c-1.381,10.379-2.38,19.861,1.815,30.388
	c13.002,32.629,24.147,65.866,27.436,100.893c0.208,2.216,0.475,8.632,1.441,6.582c3.842-8.158,1.799-11.419,0.979-16.922
	c-5.028-33.732-14.876-66.21-28.552-97.772c-1.88-4.338-1.983-10.736,0.057-14.906c4.887-9.988,4.398-19.377-1.42-28.12
	c-8.55-12.847-17.212-25.843-27.744-37.217c-4.596-4.964-13.953-6.044-21.129-8.929c-6.585-2.647-14.268-4.123-19.465-8.301
	c-8.906-7.162-16.301-15.986-24.233-24.194c-5.394-5.582-10.943-10.975-8.802-19.796c0.69-2.841-1.127-6.166-1.539-9.3
	c-4.441-33.773-9.132-67.522-12.99-101.355c-0.814-7.142,1.476-14.595,2.315-21.726c61.072,40.868,123.007,56.312,190.53,16.834
	C928.269,324.722,961.325,283.812,958.884,262.525z M525.284,203.753c-0.932,0.311-4.293,1.431-9.122,3.041
	c0.918-13.471,1.783-26.174,2.695-39.568c-3.679,0.078-6.193,0.131-9.639,0.204c-4.4-28.951,19.128-44.752,35.351-65.432
	c-6.507,0.54-11.253,0.934-18.427,1.53c2.904-4.618,4.196-8.205,6.789-10.505c7.338-6.511,14.935-12.828,22.941-18.598
	c8.944-6.446,11.632-5.786,17.779,2.844c2.357,3.309,4.451,6.782,6.666,10.18c1.758,3.397,2.434,1.813,2.845-0.081
	c1.764-6.072,3.529-12.144,5.416-18.64c0.764,1.258,2.008,2.605,2.443,4.151c1.659,5.903,4.729,7.23,11.113,4.947
	c13.502-4.828,27.426-4.649,41.42-0.377c-4.059,0.651-8.118,1.302-12.428,1.993c7.188,11.641,20.065,12.44,30.998,16.476
	c8.033,2.965,16.4,4.343,15.53,16.177c-0.388,5.276,5.885,10.947,9.012,16.499c1.506,2.674,2.728,5.488,4.858,9.827
	c-4.214-1.454-6.567-2.266-11.865-4.094c4.229,8.379,7.935,14.53,10.468,21.079c2.502,6.469,3.819,13.341,5.804,20.577
	c-2.046-1.391-4.121-2.802-6.896-4.689c0.863,8.083,1.654,15.489,2.736,25.627c-5.263-5.073-8.168-7.874-13.034-12.565
	c1.416,9.697,2.845,16.946,3.406,24.254c0.356,4.634,0.171,9.549-1.132,13.987c-1.551,5.283-4.897,8.525-12.131,6.174
	c-4.57-1.485-9.954-0.904-14.979-0.996c-8.007-0.148-16.107-0.802-24.007,0.055c-12.224,1.326-24.285,3.921-36.468,5.657
	c-16.56,2.36-32.924-0.308-47.066-7.675C538.084,221.499,532.881,212.011,525.284,203.753z M555.372,275.762
	c-10.618-7.941-15.69-10.369-10.419-9.315c8.36,1.671,20.777,3.247,30.329,4.74c1.552-0.218,0.729-0.393,0.367-0.864
	c-9.403-3.35-18.806-6.7-28.209-10.05c-0.847-0.529-1.544-2.252,0.683-3.613c4.473-0.155,22.898,2.969,16.43-0.568
	c-2.554-1.397-7.241-3.401-9.245-4.796c-2.495-1.738-7.051-2.903-6.998-5.829c0.071-3.863,6.287-7.082,9.465-7.109
	c15.467-0.13,31.622-1.363,46.207,2.359c11.58,2.955,21.244,12.504,31.758,19.125c3.478,3.883,1.078,2.722-0.577,3.368
	c-8.827,2.597-17.653,5.194-26.48,7.792c-0.974,0.652-1.126,1.705,0.195,1.835c6.073,0.597,12.238-0.743,18.206-1.837
	c19.277-3.534,19.281-3.686,29.275,10.779c1.566,2.266,2.697,4.796,4.63,8.289c-10.063,1.859-18.316,8.547-29.732,3.13
	c-4.336-2.057-14.679-4.294-17.056,0.825c-0.703,1.514,8.363,4.847,4.446,5.21c-20.444,1.896-62.651-9.922-77.968-26.512
	C536.851,268.575,560.026,279.243,555.372,275.762z M389.898,339.295c1.894-2.931,4.469-5.598,7.193-7.912
	c7.307-6.207,6.363-12.387,2.48-20.313c-6.841-13.962-12.278-28.543-17.955-42.984c-2.347-5.97,1.127-11.086,7.021-11.371
	c22.908-1.109,32.792-17.662,45.048-31.613c5.647-6.428,10.696-13.394,17.12-19.146c3.377-3.023,3.03-0.787,2.801,0.837
	c-0.672,4.767,0.271,9.708-0.607,14.395c-1.017,5.432,1.046,7.557,6.249,9.893c11.119,4.994,22.527,10.11,32.104,17.205
	c7.142,5.291,12.826,6.472,20.884,3.493c3.725-1.377,9.376-0.231,12.438-1.134c3.987-1.176,0.22,8.007-0.901,11.681
	c-1.369,4.486-4.411,8.502-6.08,12.936c-1.366,3.627-1.707,7.585-2.637,11.367c-0.848,3.447-0.693,8.037-3.022,10.085
	c-13.669,12.018-26.965,24.748-42.261,34.712c-17.178,11.188-34.217,24.023-56.439,25.798c-10.365,0.828-14.889,5.802-34.394,0.94
	C370.579,356.078,386.205,345.01,389.898,339.295z M362.267,371.402c4.379,3.998,1.14,10.898-0.011,15.604
	c-0.681,2.786-3.768,7.645-7.351,7.22c-3.168-0.375-4.645-5.136-4.648-7.707C350.249,379.388,353.718,363.597,362.267,371.402z
	 M210.063,336.113c7.299,2.267,14.134,4.39,20.88,6.486c-3.726-13.58-6.848-27.489-11.437-40.96
	c-4.421-12.979-10.358-25.504-16.553-40.46c39.879,10.604,74.636,24.192,96.66,55.421c7.642,10.836,9.932,25.079,13.978,37.957
	c0.685,2.181-1.448,6.758-3.521,7.626c-2.082,0.872-6.45-0.766-8.542-2.588c-9.756-8.498-21.453-15.651-28.542-26.224
	c-1.448-2.16-2.776-5.125-4.097-4.568c0.364,5.612,0.862,17.464,1.292,24.096c-5.5-2.004-10.021-3.651-16.263-5.925
	c0.723,10.832,1.373,20.562,2.209,33.098c-7.927-7.725-13.667-13.32-19.408-18.915c-1.595-1.353-2.09-2.914-3.841-3.826
	c1.745,11.053,4.356,27.212,6.232,39.095C225.221,391.221,207.751,354.932,210.063,336.113z M473.551,451.8
	c-1.129,4.559-1.406,11.102-4.628,13.076c-10.256,6.286-21.2,13.263-32.845,15.445c-13.601,2.549-28.227,0.52-42.393,0.057
	c-3.792-0.124-8.366,0.512-14.032-3.424c-6.446-4.477,18.791-9.908,13.996-11.824c-5.8-2.318-28.973,6.752-43.403,10.505
	c-21.291,5.536-42.346,9.241-64.693,4.111c-33.015-7.579-63.59-46.348-59.203-77.914c6.655,3.281,13.049,6.433,21.921,10.806
	c-1.813-11.316-3.16-19.727-4.908-30.641c7.597,5.103,12.798,8.596,20.194,13.564c-0.239-13.084-0.434-23.747-0.643-35.184
	c4.529,2.321,7.596,3.893,11.351,5.817c0.996-2.756,1.564-4.474,2.237-6.156c1.115-2.788,2.297-5.553,3.45-8.328
	c3.344,1.688,7.057,4.612,9.393,7.123c6.191,6.654,11.965,12.104,17.795,19.062c4.342,5.182,6.713,11.143,13.968,15.118
	c5.11,2.8,7.969,12.393,8.309,19.599c1.179,25.017,73.81,53.068,54.42,35.085c-10.087-9.355-22.455-10.749-32.789-17.771
	c-7.636-5.189-7.965-18.592-1.199-26.264c5.588-6.337,14.465-8.225,22.137-4.218c15.124,7.901,30.668,7.85,47.136,6.042
	c14.602-1.603,29.424-1.527,44.157-1.885c1.84-0.045,4.939,1.432,5.414,2.818C473.756,421.189,477.415,436.197,473.551,451.8z
	 M488.242,418.417c-2.287,0.026-7.912-1.812-7.954-3.033c-0.216-6.203-0.47-13.135,2.262-18.479
	c2.382-4.658,8.504-7.82,13.392-11.096c2.49-1.669,6.758-3.673,8.669-2.738c2.199,1.075,4.435,5.844,3.6,7.941
	c-3.314,8.323-7.611,16.334-12.073,24.196C495.299,416.686,492.342,418.371,488.242,418.417z M707.021,452.848
	c0.533,4.006,5.441,15.073,0.561,13.078c-25.033-10.236-27.401-10.238-26.791-31.885c0.018-0.632-0.065-1.267-0.045-1.898
	c0.487-15.5,0.328-30.711-7.283-45.309c-2.461-4.719-0.656-11.359-0.976-17.111c-0.083-1.483-0.639-3.01-1.296-4.383
	c-1.528-3.194-4.175-6.171-4.726-9.476c-2.045-12.265-3.427-24.627-5.057-36.953c-0.419-1.495-1.818-1.733-2.33,0.084
	c0.798,17.124,0.71,34.34,2.721,51.339c1.242,10.496,5.409,20.738,8.774,30.946c2.48,7.521-1.516,11.563-8.89,17.389
	c-3.851,3.042,7.405,1.204,9.69,1.575c-1.425,13.738-10.869,18.719-23.19,19.745c-14.744,1.227-29.561,1.813-44.361,2.257
	c-8.018,0.24-16.065-0.394-24.099-0.633c-4.156-0.061-0.988,2.414-0.085,2.59c21.197,4.121,31.63,3.316,47.109,1.85
	c15.648-1.483,17.338,5.412,34.244-5.675c17.851-11.707,34.404,35.639,7.814,55.62c-0.702,0.528-11.562,3.049-15.037,2.99
	c-0.001,0-0.002,0-0.004,0c-11.798-0.982-24.577-1.981-35.227-2.663c-2.756-0.176-5.885,4.098-8.579,3.847
	c-29.818-2.78-59.831-4.739-89.286-9.601c-23.46-3.872-39.395-25.18-19.355-43.747c2.452-2.272,7.334-3.158,15.842-0.907
	c12.14,3.212,25.032,3.93,37.603,5.713c3.117,0.258,10.408,0.971,0.457-3.005c-14.528-5.805-49.771-2.914-56.763-20.352
	c-0.393-0.981,0.101-2.951,1.219-2.929c6.479,0.13,12.699,5.791,19.811,7.1c6.25,1.15-8.754-7.769-12.878-11.429
	c-1.709-1.121,0.97-2.402,1.925-2.138c4.82,1.333,9.284,2.392,13.782,3.984c2.99,1.058,0.719-0.819,0.393-1.002
	c-4.072-2.283-9.154-6.217-13.732-9.326c-0.442-1.113,0.624-2.226,1.398-1.939c4.584,1.697,11.109,3.477,16.664,5.215
	c5.228,1.511,1.814-1.928,1.047-2.417c-3.807-2.427-13.138-2.023-16.404-6.699c-0.784-1.123-0.821-2.928,0.003-4.025
	c1.934-2.571,6.533-3.36,9.436-2.923c5.924,0.893,11.565,3.358,17.387,4.973c2.355,0.654,4.877,0.78,7.323,1.146
	c3.998,0.586,1.129-1.732,0.497-2.182c-6.689-4.753-19.539-3.564-24.141-10.121c-3.036-4.327-2.261-8.606-2.192-11.598
	c0.086-3.722-0.363-7.572,0.494-11.14c3.542-14.743,7.595-29.378,11.195-44.11c0.651-2.662,0.061-5.59,0.044-8.396
	c0.222-4.226-1.945-0.64-2.15,0.003c-2.003,6.283-4.4,16.006-6.725,24.464c-2.812-1.794-8.715-8.846-7.84-5.003
	c0.961,4.225,2.527,7.505,3.31,10.199c2.551,8.778-5.646,24.411-14.144,25.516c-7.067,0.92-12.242,0.074-14.752,9.694
	c-2.846,10.911-26.508,17.68-39.91,14.402c-3.47-0.848-7.246-1.487-10.757-1.134c-11.835,1.188-23.576,3.453-35.429,4.115
	c-6.116,0.342-13.981,1.64-16.718-6.952c-0.394-1.236-3.45-2.703-4.987-2.462c-4.64,0.729-9.049,1.831-9.663-4.456
	c-0.386-3.955-1.577-8.369-0.241-11.846c4.368-11.364,31.911-14.677,56.587-10.496c10.822,1.833,14.363-4.528,18.878-11.274
	c1.8-2.689,6.042-3.889,9.038-5.939c10.808-7.395,21.89-14.481,32.253-22.391c16.016-12.225,31.629-24.922,47.182-37.665
	c4.263-3.493,7.559-3.135,12.529-1.002c32.082,13.768,66.402,22.141,100.263,11.931c20.517-6.186,28.605,2.273,38.785,13.513
	c1.747,1.929,3.812,3.787,4.88,6.033c1.848,3.885,4.184,8.023,4.284,12.099c0.35,14.185-1.491,28.506-0.079,42.562
	C699.028,399.176,703.443,425.973,707.021,452.848z M928.728,311.729c-20.317,21.86-45.303,38.657-74.574,47.213
	c-16.444,4.807-35.278,4.816-52.77,3.61c-38.019-2.621-72.334-14.457-98.463-42.315c-10.677-11.384-21.477-22.691-32.729-33.573
	c-18.184-17.586-36.787-34.791-55.815-52.725c11.064-4.825,17.784-0.202,28.77,0.381c3.945,0.209,7.459-1.584,9.916-1.922
	c18.217-2.51,30.017,8.545,40.705,19.214c16.341,16.312,30.557,34.478,46.635,51.038c14.94,15.388,29.944,31.443,53.49,35.491
	c5.77,0.992,12.204,1.185,17.835-0.127c40.692-9.479,74.581-29.935,103.771-57.701c1.078-1.025,2.004-2.506,3.007-3.602
	c7.62-8.337,5.906-2.382,2.97,2.288c-5.47,8.699-5.084,9.116-10.325,18.223c-1.043,1.812-3.041,8.284-1.691,8.632
	c16.946,4.37,26.036-12.264,37.212-23.616c5.508-5.594,4.932-1.303,2.624,2.47C943.423,294.31,936.446,303.424,928.728,311.729z"/>
<path d="M590.501,232.951c-2.95-5.529-5.9-11.058-8.85-16.587c-0.474-1.156,0.698-1.798,1.884-0.97
	c2.125,2.844,2.254,5.459,6.949,9.301c2.07,1.693,2.342-3.949,3.39-5.716c0.806-1.142,1.59-0.71,1.59,0.088
	c-0.35,4.329-0.7,8.659-1.05,12.988C594.585,235.755,593.317,236.295,590.501,232.951z"/>
</svg>
